<?xml version="1.0" encoding="UTF-8"?>
<svg version="1.1" viewBox="0 0 64 64" xmlns="http://www.w3.org/2000/svg">
    <style>
    rect {
        fill: #4a4a4a;
        stroke: #353535;
        stroke-width: 1.4;
    }
    </style>
    <defs>
        <radialGradient id="radialGradient3033" cx="182.98" cy="395.05" r="148.95" gradientTransform="matrix(.43761 -.47549 1.4598 1.5861 -636.76 -484.44)" gradientUnits="userSpaceOnUse">
            <stop style="stop-color:#2f2f2f" offset="0"/>
            <stop style="stop-color:#4c4c4c" offset="1"/>
        </radialGradient>
    </defs>
    <path style="fill:url(#radialGradient3033);stroke-width:.22594" d="m11.214 6.6466c-9.923 10.782-7.5181 30.874 5.3685 44.877 12.887 14.002 31.377 16.611 41.298 5.8298 9.9218-10.782 7.5249-30.874-5.3618-44.877-12.887-14.002-31.383-16.611-41.305-5.8289zm8.9979 4.4786c7.7969-8.4715 22.133-6.6287 32.023 4.1167 9.8897 10.745 11.586 26.322 3.7889 34.794-7.7969 8.4715-22.136 6.633-32.025-4.1126-9.8897-10.745-11.582-26.326-3.785-34.798z"/>
    <rect x="47.405" y="10.475" width="8.3073" height="8.3059" rx="1.4698" ry="1.4695"/>
    <rect x=".70006" y="21.418" width="19.567" height="19.563" rx="3.4619" ry="3.4613"/>
    <rect x="51.269" y="47.029" width="11.821" height="11.819" rx="2.0914" ry="2.0911"/>
</svg>
